<svg width="28" height="28" viewBox="0 0 28 28" fill="none" xmlns="http://www.w3.org/2000/svg">
<path d="M13.4585 22.6941C13.7452 22.9931 14.2199 23.0031 14.5189 22.7164C14.8179 22.4298 14.8279 21.955 14.5413 21.656L13.4585 22.6941ZM7.41289 15.3045L6.86718 15.8191L6.87151 15.8236L7.41289 15.3045ZM7.41289 7.34905L6.88328 6.818C6.87783 6.82343 6.87247 6.82894 6.8672 6.83454L7.41289 7.34905ZM13.5779 7.35309C13.9204 7.58613 14.3869 7.49745 14.6199 7.15501C14.853 6.81258 14.7643 6.34606 14.4219 6.11301L13.5779 7.35309ZM13.4585 21.656C13.1718 21.955 13.1819 22.4298 13.4809 22.7165C13.7799 23.0031 14.2546 22.9931 14.5413 22.6941L13.4585 21.656ZM18.3551 18.7157C18.6418 18.4167 18.6317 17.942 18.3327 17.6553C18.0337 17.3687 17.559 17.3787 17.2723 17.6777L18.3551 18.7157ZM13.4585 21.656C13.1718 21.955 13.1818 22.4298 13.4808 22.7164C13.7798 23.0031 14.2546 22.9931 14.5413 22.6941L13.4585 21.656ZM20.5869 15.3045L21.1283 15.8236L21.1326 15.8191L20.5869 15.3045ZM20.5869 7.34905L21.1326 6.83454C21.1273 6.82894 21.1219 6.82343 21.1165 6.818L20.5869 7.34905ZM13.5779 6.11301C13.2355 6.34606 13.1468 6.81258 13.3798 7.15501C13.6129 7.49745 14.0794 7.58613 14.4219 7.35309L13.5779 6.11301ZM13.4585 22.6941C13.7451 22.9931 14.2199 23.0031 14.5189 22.7165C14.8179 22.4298 14.8279 21.955 14.5413 21.656L13.4585 22.6941ZM10.7275 17.6777C10.4408 17.3787 9.96605 17.3687 9.66704 17.6553C9.36803 17.942 9.358 18.4167 9.64465 18.7157L10.7275 17.6777ZM14.3984 6.09769C14.0475 5.87759 13.5846 5.98363 13.3645 6.33453C13.1444 6.68543 13.2505 7.14831 13.6014 7.36841L14.3984 6.09769ZM15.0406 7.58122L14.4987 8.09972L14.499 8.10007L15.0406 7.58122ZM15.885 9.54674C16.1715 9.84583 16.6463 9.856 16.9454 9.56945C17.2445 9.28289 17.2547 8.80813 16.9681 8.50903L15.885 9.54674ZM14.5413 21.656L7.95427 14.7855L6.87151 15.8236L13.4585 22.6941L14.5413 21.656ZM7.95858 14.79C6.12493 12.8453 6.12493 9.80832 7.95858 7.86356L6.8672 6.83454C4.48873 9.35714 4.48873 13.2965 6.8672 15.8191L7.95858 14.79ZM7.9425 7.8801C9.45134 6.37534 11.8162 6.15418 13.5779 7.35309L14.4219 6.11301C12.0652 4.50922 8.90168 4.80507 6.88328 6.818L7.9425 7.8801ZM14.5413 22.6941L18.3551 18.7157L17.2723 17.6777L13.4585 21.656L14.5413 22.6941ZM14.5413 22.6941L21.1283 15.8236L20.0455 14.7855L13.4585 21.656L14.5413 22.6941ZM21.1326 15.8191C23.5111 13.2965 23.5111 9.35714 21.1326 6.83454L20.0412 7.86356C21.8748 9.80832 21.8748 12.8453 20.0412 14.79L21.1326 15.8191ZM21.1165 6.818C19.0981 4.80507 15.9346 4.50922 13.5779 6.11301L14.4219 7.35309C16.1835 6.15418 18.5484 6.37534 20.0573 7.8801L21.1165 6.818ZM14.5413 21.656L10.7275 17.6777L9.64465 18.7157L13.4585 22.6941L14.5413 21.656ZM13.6014 7.36841C13.9295 7.57422 14.2309 7.81986 14.4987 8.09972L15.5825 7.06271C15.2291 6.69342 14.8314 6.36928 14.3984 6.09769L13.6014 7.36841ZM14.499 8.10007L15.885 9.54674L16.9681 8.50903L15.5821 7.06236L14.499 8.10007Z" fill="white"/>
</svg>
