<svg width="14" height="12" viewBox="0 0 14 12" fill="none" xmlns="http://www.w3.org/2000/svg">
<path fill-rule="evenodd" clip-rule="evenodd" d="M1.1667 2.64584V9.35418C1.16452 9.70011 1.29987 10.0327 1.54295 10.2789C1.78603 10.525 2.11693 10.6645 2.46286 10.6667H3.75903C4.10496 10.6645 4.43587 10.525 4.67895 10.2789C4.92203 10.0327 5.05737 9.70011 5.0552 9.35418V2.64584C5.05737 2.29991 4.92203 1.96728 4.67895 1.72114C4.43587 1.475 4.10496 1.3355 3.75903 1.33334H2.46286C2.11693 1.3355 1.78603 1.475 1.54295 1.72114C1.29987 1.96728 1.16452 2.29991 1.1667 2.64584Z" stroke="white" stroke-width="1.5" stroke-linecap="round" stroke-linejoin="round"/>
<path fill-rule="evenodd" clip-rule="evenodd" d="M8.94485 2.64584V9.35418C8.94268 9.70011 9.07802 10.0327 9.3211 10.2789C9.56418 10.525 9.89508 10.6645 10.241 10.6667H11.5372C11.8831 10.6645 12.214 10.525 12.4571 10.2789C12.7002 10.0327 12.8355 9.70011 12.8334 9.35418V2.64584C12.8355 2.29991 12.7002 1.96728 12.4571 1.72114C12.214 1.475 11.8831 1.3355 11.5372 1.33334H10.241C9.89508 1.3355 9.56418 1.475 9.3211 1.72114C9.07802 1.96728 8.94268 2.29991 8.94485 2.64584V2.64584Z" stroke="white" stroke-width="1.5" stroke-linecap="round" stroke-linejoin="round"/>
</svg>
