<svg width="16" height="14" viewBox="0 0 16 14" fill="none" xmlns="http://www.w3.org/2000/svg">
<path d="M12.4697 4.46967C12.1768 4.76256 12.1768 5.23744 12.4697 5.53033C12.7626 5.82322 13.2374 5.82322 13.5303 5.53033L12.4697 4.46967ZM15.5303 3.53033C15.8232 3.23744 15.8232 2.76256 15.5303 2.46967C15.2374 2.17678 14.7626 2.17678 14.4697 2.46967L15.5303 3.53033ZM14.4697 3.53033C14.7626 3.82322 15.2374 3.82322 15.5303 3.53033C15.8232 3.23744 15.8232 2.76256 15.5303 2.46967L14.4697 3.53033ZM13.5303 0.46967C13.2374 0.176777 12.7626 0.176777 12.4697 0.46967C12.1768 0.762563 12.1768 1.23744 12.4697 1.53033L13.5303 0.46967ZM15 3.75C15.4142 3.75 15.75 3.41421 15.75 3C15.75 2.58579 15.4142 2.25 15 2.25V3.75ZM12.7 3L12.6993 3.75H12.7V3ZM8.518 5.252L9.14456 5.66421L9.14457 5.6642L8.518 5.252ZM6.74144 6.58779C6.51378 6.93383 6.60975 7.3989 6.95579 7.62656C7.30183 7.85422 7.7669 7.75825 7.99456 7.41221L6.74144 6.58779ZM7.99456 7.41221C8.22222 7.06617 8.12625 6.6011 7.78021 6.37344C7.43417 6.14578 6.9691 6.24175 6.74144 6.58779L7.99456 7.41221ZM6.218 8.748L5.59144 8.33579L5.59143 8.3358L6.218 8.748ZM2.041 11V11.75H2.04102L2.041 11ZM1 10.25C0.585786 10.25 0.25 10.5858 0.25 11C0.25 11.4142 0.585786 11.75 1 11.75V10.25ZM7.99456 6.58779C7.7669 6.24175 7.30183 6.14578 6.95579 6.37344C6.60975 6.6011 6.51378 7.06617 6.74144 7.41221L7.99456 6.58779ZM8.518 8.748L9.14457 8.3358L9.14456 8.33579L8.518 8.748ZM12.7 11V10.25H12.6993L12.7 11ZM15 11.75C15.4142 11.75 15.75 11.4142 15.75 11C15.75 10.5858 15.4142 10.25 15 10.25V11.75ZM6.74144 7.41221C6.9691 7.75825 7.43417 7.85422 7.78021 7.62656C8.12625 7.3989 8.22222 6.93383 7.99456 6.58779L6.74144 7.41221ZM6.218 5.252L5.59143 5.6642L5.59144 5.66421L6.218 5.252ZM2.041 3L2.04102 2.25H2.041V3ZM1 2.25C0.585786 2.25 0.25 2.58579 0.25 3C0.25 3.41421 0.585786 3.75 1 3.75V2.25ZM13.5303 8.46967C13.2374 8.17678 12.7626 8.17678 12.4697 8.46967C12.1768 8.76256 12.1768 9.23744 12.4697 9.53033L13.5303 8.46967ZM14.4697 11.5303C14.7626 11.8232 15.2374 11.8232 15.5303 11.5303C15.8232 11.2374 15.8232 10.7626 15.5303 10.4697L14.4697 11.5303ZM15.5303 11.5303C15.8232 11.2374 15.8232 10.7626 15.5303 10.4697C15.2374 10.1768 14.7626 10.1768 14.4697 10.4697L15.5303 11.5303ZM12.4697 12.4697C12.1768 12.7626 12.1768 13.2374 12.4697 13.5303C12.7626 13.8232 13.2374 13.8232 13.5303 13.5303L12.4697 12.4697ZM13.5303 5.53033L15.5303 3.53033L14.4697 2.46967L12.4697 4.46967L13.5303 5.53033ZM15.5303 2.46967L13.5303 0.46967L12.4697 1.53033L14.4697 3.53033L15.5303 2.46967ZM15 2.25H12.7V3.75H15V2.25ZM12.7007 2.25C10.7638 2.24812 8.95599 3.22159 7.89143 4.8398L9.14457 5.6642C9.93142 4.46813 11.2676 3.74861 12.6993 3.75L12.7007 2.25ZM7.89144 4.83979L6.74144 6.58779L7.99456 7.41221L9.14456 5.66421L7.89144 4.83979ZM6.74144 6.58779L5.59144 8.33579L6.84456 9.16021L7.99456 7.41221L6.74144 6.58779ZM5.59143 8.3358C4.80541 9.53061 3.47115 10.25 2.04098 10.25L2.04102 11.75C3.97596 11.7499 5.78113 10.7767 6.84457 9.1602L5.59143 8.3358ZM2.041 10.25H1V11.75H2.041V10.25ZM6.74144 7.41221L7.89144 9.16021L9.14456 8.33579L7.99456 6.58779L6.74144 7.41221ZM7.89143 9.1602C8.95599 10.7784 10.7638 11.7519 12.7007 11.75L12.6993 10.25C11.2676 10.2514 9.93142 9.53187 9.14457 8.3358L7.89143 9.1602ZM12.7 11.75H15V10.25H12.7V11.75ZM7.99456 6.58779L6.84456 4.83979L5.59144 5.66421L6.74144 7.41221L7.99456 6.58779ZM6.84457 4.8398C5.78113 3.2233 3.97596 2.25005 2.04102 2.25L2.04098 3.75C3.47115 3.75004 4.80541 4.46939 5.59143 5.6642L6.84457 4.8398ZM2.041 2.25H1V3.75H2.041V2.25ZM12.4697 9.53033L14.4697 11.5303L15.5303 10.4697L13.5303 8.46967L12.4697 9.53033ZM14.4697 10.4697L12.4697 12.4697L13.5303 13.5303L15.5303 11.5303L14.4697 10.4697Z" fill="white"/>
</svg>
