<svg width="24" height="24" viewBox="0 0 24 24" fill="none" xmlns="http://www.w3.org/2000/svg">
<g clip-path="url(#clip0_246_136)">
<path d="M8 7.343C8.41421 7.343 8.75 7.00721 8.75 6.593C8.75 6.17879 8.41421 5.843 8 5.843V7.343ZM7.808 6.593L7.79453 7.343H7.808V6.593ZM3 11.227L2.25013 11.2128C2.25004 11.2176 2.25 11.2223 2.25 11.227L3 11.227ZM3 12.772L2.24987 12.772L2.25013 12.786L3 12.772ZM7.808 17.407L7.808 16.6569L7.79453 16.6571L7.808 17.407ZM9.988 18.157C10.4022 18.157 10.738 17.8212 10.738 17.407C10.738 16.9928 10.4022 16.657 9.988 16.657V18.157ZM8.87522 15.2787C8.57845 14.9897 8.10362 14.996 7.81465 15.2928C7.52569 15.5896 7.53201 16.0644 7.82878 16.3533L8.87522 15.2787ZM9.46378 17.9453C9.76055 18.2343 10.2354 18.228 10.5243 17.9312C10.8133 17.6344 10.807 17.1596 10.5102 16.8707L9.46378 17.9453ZM10.5102 17.9453C10.807 17.6564 10.8133 17.1816 10.5243 16.8848C10.2354 16.588 9.76055 16.5817 9.46378 16.8707L10.5102 17.9453ZM7.82878 18.4627C7.53201 18.7516 7.52569 19.2264 7.81465 19.5232C8.10362 19.82 8.57845 19.8263 8.87522 19.5373L7.82878 18.4627ZM12 16.657C11.5858 16.657 11.25 16.9928 11.25 17.407C11.25 17.8212 11.5858 18.157 12 18.157V16.657ZM12.192 17.407L12.2055 16.657H12.192V17.407ZM17 12.773L17.7499 12.7872C17.75 12.7824 17.75 12.7777 17.75 12.773L17 12.773ZM17 11.228L17.7501 11.228L17.7499 11.214L17 11.228ZM12.192 6.593L12.192 7.34312L12.2055 7.34288L12.192 6.593ZM10.013 5.843C9.59879 5.843 9.263 6.17879 9.263 6.593C9.263 7.00721 9.59879 7.343 10.013 7.343V5.843ZM11.1248 8.72135C11.4216 9.01031 11.8964 9.00399 12.1853 8.70722C12.4743 8.41045 12.468 7.93562 12.1712 7.64665L11.1248 8.72135ZM10.5362 6.05465C10.2394 5.76569 9.76462 5.77201 9.47565 6.06878C9.18669 6.36555 9.19301 6.84038 9.48978 7.12935L10.5362 6.05465ZM9.48978 6.05465C9.19301 6.34362 9.18669 6.81845 9.47565 7.11522C9.76462 7.41199 10.2394 7.41831 10.5362 7.12935L9.48978 6.05465ZM12.1712 5.53735C12.468 5.24838 12.4743 4.77355 12.1853 4.47678C11.8964 4.18001 11.4216 4.17369 11.1248 4.46265L12.1712 5.53735ZM8 5.843H7.808V7.343H8V5.843ZM7.82147 5.84312C4.80074 5.78886 2.30721 8.19215 2.25013 11.2128L3.74987 11.2412C3.7913 9.04822 5.60155 7.30349 7.79453 7.34288L7.82147 5.84312ZM2.25 11.227V12.772H3.75V11.227H2.25ZM2.25013 12.786C2.30657 15.8071 4.80029 18.2111 7.82147 18.1569L7.79453 16.6571C5.60123 16.6965 3.79084 14.9513 3.74987 12.758L2.25013 12.786ZM7.808 18.157H9.988V16.657H7.808V18.157ZM7.82878 16.3533L9.46378 17.9453L10.5102 16.8707L8.87522 15.2787L7.82878 16.3533ZM9.46378 16.8707L7.82878 18.4627L8.87522 19.5373L10.5102 17.9453L9.46378 16.8707ZM12 18.157H12.192V16.657H12V18.157ZM12.1785 18.1569C15.1993 18.2111 17.6928 15.8078 17.7499 12.7872L16.2501 12.7588C16.2087 14.9518 14.3985 16.6965 12.2055 16.6571L12.1785 18.1569ZM17.75 12.773V11.228H16.25V12.773H17.75ZM17.7499 11.214C17.6934 8.19286 15.1997 5.78886 12.1785 5.84312L12.2055 7.34288C14.3988 7.30349 16.2092 9.04873 16.2501 11.242L17.7499 11.214ZM12.192 5.843H10.013V7.343H12.192V5.843ZM12.1712 7.64665L10.5362 6.05465L9.48978 7.12935L11.1248 8.72135L12.1712 7.64665ZM10.5362 7.12935L12.1712 5.53735L11.1248 4.46265L9.48978 6.05465L10.5362 7.12935Z" fill="white"/>
<path d="M7.22928 9.4C7.68528 9.224 8.12928 9 8.56128 8.728C8.99328 8.448 9.38928 8.1 9.74928 7.684H10.5413V16H9.42528V9.232C9.32928 9.32 9.20928 9.412 9.06528 9.508C8.92928 9.604 8.77728 9.696 8.60928 9.784C8.44928 9.872 8.27728 9.956 8.09328 10.036C7.91728 10.116 7.74528 10.184 7.57728 10.24L7.22928 9.4Z" fill="white"/>
</g>
<defs>
<clipPath id="clip0_246_136">
<rect width="24" height="24" fill="white"/>
</clipPath>
</defs>
</svg>
