<svg width="16" height="16" viewBox="0 0 16 16" fill="none" xmlns="http://www.w3.org/2000/svg">
<path d="M6 3.343C6.41421 3.343 6.75 3.00721 6.75 2.593C6.75 2.17879 6.41421 1.843 6 1.843V3.343ZM5.808 2.593L5.79453 3.343H5.808V2.593ZM1 7.227L0.250134 7.21283C0.250045 7.21755 0.25 7.22228 0.25 7.227H1ZM1 8.772L0.249869 8.772L0.250131 8.78601L1 8.772ZM5.808 13.407V12.6569L5.79453 12.6571L5.808 13.407ZM7.988 14.157C8.40221 14.157 8.738 13.8212 8.738 13.407C8.738 12.9928 8.40221 12.657 7.988 12.657V14.157ZM6.87522 11.2787C6.57845 10.9897 6.10362 10.996 5.81465 11.2928C5.52569 11.5896 5.53201 12.0644 5.82878 12.3533L6.87522 11.2787ZM7.46378 13.9453C7.76055 14.2343 8.23538 14.228 8.52435 13.9312C8.81331 13.6344 8.80699 13.1596 8.51022 12.8707L7.46378 13.9453ZM8.51022 13.9453C8.80699 13.6564 8.81331 13.1816 8.52435 12.8848C8.23538 12.588 7.76055 12.5817 7.46378 12.8707L8.51022 13.9453ZM5.82878 14.4627C5.53201 14.7516 5.52569 15.2264 5.81465 15.5232C6.10362 15.82 6.57845 15.8263 6.87522 15.5373L5.82878 14.4627ZM10 12.657C9.58579 12.657 9.25 12.9928 9.25 13.407C9.25 13.8212 9.58579 14.157 10 14.157V12.657ZM10.192 13.407L10.2055 12.657H10.192V13.407ZM15 8.773L15.7499 8.78717C15.75 8.78245 15.75 8.77772 15.75 8.773H15ZM15 7.228H15.7501L15.7499 7.21399L15 7.228ZM10.192 2.593V3.34312L10.2055 3.34288L10.192 2.593ZM8.013 1.843C7.59879 1.843 7.263 2.17879 7.263 2.593C7.263 3.00721 7.59879 3.343 8.013 3.343V1.843ZM9.12478 4.72135C9.42155 5.01031 9.89638 5.00399 10.1853 4.70722C10.4743 4.41045 10.468 3.93562 10.1712 3.64665L9.12478 4.72135ZM8.53622 2.05465C8.23945 1.76569 7.76462 1.77201 7.47565 2.06878C7.18669 2.36555 7.19301 2.84038 7.48978 3.12935L8.53622 2.05465ZM7.48978 2.05465C7.19301 2.34362 7.18669 2.81845 7.47565 3.11522C7.76462 3.41199 8.23945 3.41831 8.53622 3.12935L7.48978 2.05465ZM10.1712 1.53735C10.468 1.24838 10.4743 0.773553 10.1853 0.476783C9.89638 0.180013 9.42155 0.173686 9.12478 0.462651L10.1712 1.53735ZM6 1.843H5.808V3.343H6V1.843ZM5.82147 1.84312C2.80074 1.78886 0.307206 4.19215 0.250134 7.21283L1.74987 7.24117C1.7913 5.04822 3.60155 3.30349 5.79453 3.34288L5.82147 1.84312ZM0.25 7.227V8.772H1.75V7.227H0.25ZM0.250131 8.78601C0.306572 11.8071 2.80029 14.2111 5.82147 14.1569L5.79453 12.6571C3.60123 12.6965 1.79084 10.9513 1.74987 8.75799L0.250131 8.78601ZM5.808 14.157H7.988V12.657H5.808V14.157ZM5.82878 12.3533L7.46378 13.9453L8.51022 12.8707L6.87522 11.2787L5.82878 12.3533ZM7.46378 12.8707L5.82878 14.4627L6.87522 15.5373L8.51022 13.9453L7.46378 12.8707ZM10 14.157H10.192V12.657H10V14.157ZM10.1785 14.1569C13.1993 14.2111 15.6928 11.8078 15.7499 8.78717L14.2501 8.75883C14.2087 10.9518 12.3985 12.6965 10.2055 12.6571L10.1785 14.1569ZM15.75 8.773V7.228H14.25V8.773H15.75ZM15.7499 7.21399C15.6934 4.19286 13.1997 1.78886 10.1785 1.84312L10.2055 3.34288C12.3988 3.30349 14.2092 5.04873 14.2501 7.24201L15.7499 7.21399ZM10.192 1.843H8.013V3.343H10.192V1.843ZM10.1712 3.64665L8.53622 2.05465L7.48978 3.12935L9.12478 4.72135L10.1712 3.64665ZM8.53622 3.12935L10.1712 1.53735L9.12478 0.462651L7.48978 2.05465L8.53622 3.12935Z" fill="white"/>
</svg>
