<svg width="27" height="28" viewBox="0 0 27 28" fill="none" xmlns="http://www.w3.org/2000/svg">
<g filter="url(#filter0_d_1_102)">
<path d="M14.25 5C14.25 4.58579 13.9142 4.25 13.5 4.25C13.0858 4.25 12.75 4.58579 12.75 5H14.25ZM12.75 19C12.75 19.4142 13.0858 19.75 13.5 19.75C13.9142 19.75 14.25 19.4142 14.25 19H12.75ZM16.917 6.75C16.917 6.33579 16.5812 6 16.167 6C15.7528 6 15.417 6.33579 15.417 6.75H16.917ZM15.417 17.25C15.417 17.6642 15.7528 18 16.167 18C16.5812 18 16.917 17.6642 16.917 17.25H15.417ZM19.583 8.5C19.583 8.08579 19.2472 7.75 18.833 7.75C18.4188 7.75 18.083 8.08579 18.083 8.5H19.583ZM18.083 15.5C18.083 15.9142 18.4188 16.25 18.833 16.25C19.2472 16.25 19.583 15.9142 19.583 15.5H18.083ZM22.25 10.25C22.25 9.83579 21.9142 9.5 21.5 9.5C21.0858 9.5 20.75 9.83579 20.75 10.25H22.25ZM20.75 13.75C20.75 14.1642 21.0858 14.5 21.5 14.5C21.9142 14.5 22.25 14.1642 22.25 13.75H20.75ZM10.083 17.25C10.083 17.6642 10.4188 18 10.833 18C11.2472 18 11.583 17.6642 11.583 17.25H10.083ZM11.583 6.75C11.583 6.33579 11.2472 6 10.833 6C10.4188 6 10.083 6.33579 10.083 6.75H11.583ZM7.417 15.5C7.417 15.9142 7.75279 16.25 8.167 16.25C8.58121 16.25 8.917 15.9142 8.917 15.5H7.417ZM8.917 8.5C8.917 8.08579 8.58121 7.75 8.167 7.75C7.75279 7.75 7.417 8.08579 7.417 8.5H8.917ZM4.75 13.75C4.75 14.1642 5.08579 14.5 5.5 14.5C5.91421 14.5 6.25 14.1642 6.25 13.75H4.75ZM6.25 10.25C6.25 9.83579 5.91421 9.5 5.5 9.5C5.08579 9.5 4.75 9.83579 4.75 10.25H6.25ZM12.75 5V19H14.25V5H12.75ZM15.417 6.75V17.25H16.917V6.75H15.417ZM18.083 8.5V15.5H19.583V8.5H18.083ZM20.75 10.25V13.75H22.25V10.25H20.75ZM11.583 17.25V6.75H10.083V17.25H11.583ZM8.917 15.5V8.5H7.417V15.5H8.917ZM6.25 13.75V10.25H4.75V13.75H6.25Z" fill="white"/>
</g>
<defs>
<filter id="filter0_d_1_102" x="-3" y="0" width="32" height="32" filterUnits="userSpaceOnUse" color-interpolation-filters="sRGB">
<feFlood flood-opacity="0" result="BackgroundImageFix"/>
<feColorMatrix in="SourceAlpha" type="matrix" values="0 0 0 0 0 0 0 0 0 0 0 0 0 0 0 0 0 0 127 0" result="hardAlpha"/>
<feOffset dy="4"/>
<feGaussianBlur stdDeviation="2"/>
<feComposite in2="hardAlpha" operator="out"/>
<feColorMatrix type="matrix" values="0 0 0 0 0 0 0 0 0 0 0 0 0 0 0 0 0 0 0.25 0"/>
<feBlend mode="normal" in2="BackgroundImageFix" result="effect1_dropShadow_1_102"/>
<feBlend mode="normal" in="SourceGraphic" in2="effect1_dropShadow_1_102" result="shape"/>
</filter>
</defs>
</svg>
