<svg width="28" height="28" viewBox="0 0 28 28" fill="none" xmlns="http://www.w3.org/2000/svg">
<path fill-rule="evenodd" clip-rule="evenodd" d="M7.56574 17.4427C6.54824 17.3765 5.77551 16.5005 5.83674 15.4827V12.4494C5.77551 11.4316 6.54824 10.5556 7.56574 10.4894H8.85607C9.24287 10.4869 9.61576 10.3448 9.90607 10.0892L11.7062 8.53637C12.2535 8.10514 13.0066 8.0459 13.6145 8.38626C14.2225 8.72662 14.5656 9.39959 14.4841 10.0915V17.8405C14.5656 18.5325 14.2225 19.2055 13.6145 19.5458C13.0066 19.8862 12.2535 19.8269 11.7062 19.3957L9.90374 17.8429C9.61343 17.5873 9.24054 17.4451 8.85374 17.4427H7.56574Z" stroke="white" stroke-width="1.5" stroke-linecap="round" stroke-linejoin="round"/>
<path d="M20.9761 8.16813C20.7269 7.83723 20.2567 7.77096 19.9258 8.02011C19.5949 8.26927 19.5286 8.73949 19.7778 9.07039L20.9761 8.16813ZM19.7778 18.863C19.5286 19.1939 19.5949 19.6641 19.9258 19.9132C20.2567 20.1624 20.7269 20.0961 20.9761 19.7652L19.7778 18.863ZM18.0412 9.46659C17.7707 9.15285 17.2972 9.11774 16.9834 9.38818C16.6697 9.65862 16.6346 10.1322 16.905 10.4459L18.0412 9.46659ZM16.905 17.4874C16.6346 17.8012 16.6697 18.2747 16.9834 18.5452C17.2972 18.8156 17.7707 18.7805 18.0412 18.4668L16.905 17.4874ZM19.7778 9.07039C21.9607 11.9696 21.9607 15.9637 19.7778 18.863L20.9761 19.7652C23.5613 16.3318 23.5613 11.6016 20.9761 8.16813L19.7778 9.07039ZM16.905 10.4459C18.649 12.4692 18.649 15.4642 16.905 17.4874L18.0412 18.4668C20.2702 15.8808 20.2702 12.0526 18.0412 9.46659L16.905 10.4459Z" fill="white"/>
</svg>
