<svg width="28" height="28" viewBox="0 0 28 28" fill="none" xmlns="http://www.w3.org/2000/svg">
<g clip-path="url(#clip0_246_105)">
<path d="M8 7.42352L20 20.4235" stroke="white"/>
<path fill-rule="evenodd" clip-rule="evenodd" d="M10.5658 17.4427C9.54828 17.3765 8.77555 16.5005 8.83677 15.4827V12.4494C8.77555 11.4316 9.54828 10.5556 10.5658 10.4894H11.8561C12.2429 10.4869 12.6158 10.3448 12.9061 10.0892L14.7063 8.53637C15.2535 8.10514 16.0066 8.0459 16.6146 8.38626C17.2225 8.72662 17.5657 9.39959 17.4841 10.0915V17.8405C17.5657 18.5325 17.2225 19.2055 16.6146 19.5458C16.0066 19.8862 15.2535 19.8269 14.7063 19.3957L12.9038 17.8429C12.6135 17.5873 12.2406 17.4451 11.8538 17.4427H10.5658Z" stroke="white" stroke-width="1.5" stroke-linecap="round" stroke-linejoin="round"/>
</g>
<defs>
<clipPath id="clip0_246_105">
<rect width="28" height="28" fill="white"/>
</clipPath>
</defs>
</svg>
